<?xml version="1.0" encoding="UTF-8" standalone="no"?>
<svg width="86px" height="28px" viewBox="0 0 86 28" version="1.1" xmlns="http://www.w3.org/2000/svg" xmlns:xlink="http://www.w3.org/1999/xlink">
    <!-- Generator: Sketch 3.7.2 (28276) - http://www.bohemiancoding.com/sketch -->
    <title>Logo</title>
    <desc>Created with Sketch.</desc>
    <defs>
        <polygon id="path-1" points="0 0 85.8570241 0 85.8570241 28 0 28"></polygon>
    </defs>
    <g id="IMAGES" stroke="none" stroke-width="1" fill="none" fill-rule="evenodd">
        <g id="+1440-1" transform="translate(-25.000000, -991.000000)">
            <g id="Footer" transform="translate(1.000000, 960.000000)">
                <g id="Logo" transform="translate(67.000000, 45.000000) scale(1, -1) translate(-67.000000, -45.000000) translate(24.000000, 31.000000)">
                    <path d="M0.149114663,17.1777118 C0.149114663,23.1336824 5.16865477,27.9828294 11.1394329,27.9828294 C14.4418325,27.9828294 16.7932005,26.6915353 18.5631761,25.0049471 L16.4759836,22.9228588 C15.2079414,24.1089471 13.4908009,25.0313 11.1394329,25.0313 C6.78033145,25.0313 3.37226165,21.5261529 3.37226165,17.1777118 C3.37226165,12.8292706 6.78033145,9.32412353 11.1394329,9.32412353 C13.9661103,9.32412353 15.577787,10.4573 16.6080713,11.4852706 C17.4536391,12.3285647 18.0082012,13.5408 18.219748,15.2010353 L11.1394329,15.2010353 L11.1394329,18.1527706 L21.0992605,18.1527706 C21.2049307,17.6257118 21.2577658,16.9932412 21.2577658,16.3078588 C21.2577658,14.0942118 20.6501622,11.3533 18.6950574,9.40318235 C16.7932005,7.42671176 14.3623735,6.37259412 11.1394329,6.37259412 C5.16865477,6.37259412 0.149114663,11.2215353 0.149114663,17.1777118" id="Fill-1" fill="#8A8A8A"></path>
                    <path d="M29.3070475,9.1133 C27.1934375,9.1133 25.3706268,10.8525941 25.3706268,13.3299765 C25.3706268,15.8337118 27.1934375,17.5466529 29.3070475,17.5466529 C31.4204512,17.5466529 33.2432619,15.8337118 33.2432619,13.3299765 C33.2432619,10.8525941 31.4204512,9.1133 29.3070475,9.1133 M29.3070475,20.2873588 C25.4498794,20.2873588 22.3059851,17.3621824 22.3059851,13.3299765 C22.3059851,9.32412353 25.4498794,6.37238824 29.3070475,6.37238824 C33.1640092,6.37238824 36.3079036,9.32412353 36.3079036,13.3299765 C36.3079036,17.3621824 33.1640092,20.2873588 29.3070475,20.2873588" id="Fill-3" fill="#8A8A8A"></path>
                    <path d="M44.579588,9.1133 C42.4661844,9.1133 40.6431673,10.8525941 40.6431673,13.3299765 C40.6431673,15.8337118 42.4661844,17.5466529 44.579588,17.5466529 C46.6929917,17.5466529 48.5158024,15.8337118 48.5158024,13.3299765 C48.5158024,10.8525941 46.6929917,9.1133 44.579588,9.1133 M44.579588,20.2873588 C40.7224199,20.2873588 37.5785256,17.3621824 37.5785256,13.3299765 C37.5785256,9.32412353 40.7224199,6.37238824 44.579588,6.37238824 C48.4365497,6.37238824 51.5806505,9.32412353 51.5806505,13.3299765 C51.5806505,17.3621824 48.4365497,20.2873588 44.579588,20.2873588" id="Fill-5" fill="#8A8A8A"></path>
                    <path d="M59.8121101,9.1133 C57.6987064,9.1133 55.9285245,10.8789471 55.9285245,13.3036235 C55.9285245,15.7544471 57.6987064,17.5466529 59.8121101,17.5466529 C61.8990962,17.5466529 63.5371905,15.7544471 63.5371905,13.3036235 C63.5371905,10.8789471 61.8990962,9.1133 59.8121101,9.1133 L59.8121101,9.1133 Z M63.3256437,19.8659176 L63.3256437,18.7325353 L63.2201799,18.7325353 C62.5333237,19.5494765 61.21224,20.2873588 59.5479346,20.2873588 C56.0606122,20.2873588 52.8638828,17.2304176 52.8638828,13.3036235 C52.8638828,9.40318235 56.0606122,6.37238824 59.5479346,6.37238824 C61.21224,6.37238824 62.5333237,7.11027059 63.2201799,7.95377059 L63.3256437,7.95377059 L63.3256437,6.95215294 C63.3256437,4.29050588 61.8990962,2.86744706 59.6007697,2.86744706 C57.725124,2.86744706 56.5625456,4.21144706 56.0870297,5.34462353 L53.4186512,4.2378 C54.18476,2.39288824 56.2191175,0.126535294 59.6007697,0.126535294 C63.1937624,0.126535294 66.2317801,2.23477059 66.2317801,7.3738 L66.2317801,19.8659176 L63.3256437,19.8659176 Z" id="Fill-7" fill="#8A8A8A"></path>
                    <mask id="mask-2" fill="white">
                        <use xlink:href="#path-1"></use>
                    </mask>
                    <g id="Clip-10"></g>
                    <polygon id="Fill-9" fill="#8A8A8A" mask="url(#mask-2)" points="71.4099287 6.79411765 68.345287 6.79411765 68.345287 27.2450294 71.4099287 27.2450294"></polygon>
                    <path d="M79.5732806,17.5993176 C80.7886941,17.5993176 81.8189784,16.9932 82.1624065,16.1235529 L75.9276593,13.5407588 C75.8482002,16.2289647 78.0146454,17.5993176 79.5732806,17.5993176 M79.8110385,9.11325882 C78.2524033,9.11325882 77.1428664,9.82478824 76.4295926,11.2214941 L85.7553991,15.0692294 L85.4383886,15.8600235 C84.8572025,17.4148471 83.0870206,20.2875235 79.4676104,20.2875235 C75.8746178,20.2875235 72.8894351,17.4675529 72.8894351,13.3299353 C72.8894351,9.42949412 75.8482002,6.37255294 79.8110385,6.37255294 C83.007768,6.37255294 84.8572025,8.32267059 85.623105,9.45584706 L83.2455259,11.0370235 C82.4529995,9.87749412 81.3698801,9.11325882 79.8110385,9.11325882" id="Fill-11" fill="#8A8A8A" mask="url(#mask-2)"></path>
                </g>
            </g>
        </g>
    </g>
</svg>